<svg width="29" height="28" viewBox="0 0 29 28" fill="none" xmlns="http://www.w3.org/2000/svg">
<g clip-path="url(#clip0_0_84)">
<path d="M14.5 0C6.7807 0 0.5 6.2807 0.5 14C0.5 21.7193 6.7807 28 14.5 28C22.2193 28 28.5 21.7193 28.5 14C28.5 6.2807 22.2193 0 14.5 0ZM22.3246 10.3158L13.3772 19.193C12.8509 19.7193 12.0088 19.7544 11.4474 19.2281L6.71053 14.9123C6.14912 14.386 6.11403 13.5088 6.60526 12.9474C7.13158 12.386 8.00877 12.3509 8.57018 12.8772L12.3246 16.3158L20.3246 8.31579C20.886 7.75439 21.7632 7.75439 22.3246 8.31579C22.886 8.87719 22.886 9.75439 22.3246 10.3158Z" fill="#0152FF"/>
</g>
<defs>
<clipPath id="clip0_0_84">
<rect width="28" height="28" fill="white" transform="translate(0.5)"/>
</clipPath>
</defs>
</svg>
