<svg width="14" height="13" viewBox="0 0 14 13" fill="none" xmlns="http://www.w3.org/2000/svg">
<path fill-rule="evenodd" clip-rule="evenodd" d="M7.00001 2.16665C4.60678 2.16665 2.66668 4.10675 2.66668 6.49998C2.66668 8.89321 4.60678 10.8333 7.00001 10.8333C9.39324 10.8333 11.3333 8.89321 11.3333 6.49998C11.3333 4.10675 9.39324 2.16665 7.00001 2.16665ZM1.58334 6.49998C1.58334 3.50844 4.00847 1.08331 7.00001 1.08331C9.99155 1.08331 12.4167 3.50844 12.4167 6.49998C12.4167 9.49152 9.99155 11.9166 7.00001 11.9166C4.00847 11.9166 1.58334 9.49152 1.58334 6.49998Z" fill="#0152FF"/>
<path fill-rule="evenodd" clip-rule="evenodd" d="M7.00001 5.41665C7.29916 5.41665 7.54168 5.65916 7.54168 5.95831V9.20831C7.54168 9.50747 7.29916 9.74998 7.00001 9.74998C6.70086 9.74998 6.45834 9.50747 6.45834 9.20831V5.95831C6.45834 5.65916 6.70086 5.41665 7.00001 5.41665Z" fill="#0152FF"/>
<path d="M7.81251 4.06248C7.81251 4.51121 7.44874 4.87498 7.00001 4.87498C6.55128 4.87498 6.18751 4.51121 6.18751 4.06248C6.18751 3.61375 6.55128 3.24998 7.00001 3.24998C7.44874 3.24998 7.81251 3.61375 7.81251 4.06248Z" fill="#0152FF"/>
</svg>
