<svg width="200" height="82" viewBox="0 0 200 82" fill="none" xmlns="http://www.w3.org/2000/svg">
<path d="M95.379 22.588H100.343C102.352 22.588 103.699 23.2286 103.699 25.1979C103.699 26.2656 103.203 26.9537 102.257 27.4045C103.557 27.7841 104.196 28.7569 104.196 30.0856C104.196 32.2448 102.376 33.1464 100.485 33.1464H95.379V22.588ZM97.6954 26.8588H100.035C100.863 26.8588 101.454 26.4792 101.454 25.6013C101.454 24.6047 100.674 24.3912 99.87 24.3912H97.6954V26.8588ZM97.6954 31.3432H100.177C101.075 31.3432 101.879 31.0584 101.879 29.9433C101.879 28.8518 101.217 28.4248 100.201 28.4248H97.6718V31.3432H97.6954Z" fill="#0152FF"/>
<path d="M111.759 29.2552L114.714 33.1701H111.878L109.23 29.3738H108.096V33.1701H105.756V22.588H110.507C113.154 22.588 114.17 24.2726 114.17 25.9809C114.17 27.4282 113.414 28.8756 111.665 29.2552H111.759ZM108.096 24.3912V27.5706H109.892C111.003 27.5706 111.925 27.3096 111.925 25.9809C111.925 24.6047 111.003 24.3912 109.892 24.3912H108.096Z" fill="#0152FF"/>
<path d="M116.416 22.588H118.732V33.1701H116.416V22.588Z" fill="#0152FF"/>
<path d="M130.031 30.489C129.133 32.1973 127.289 33.3362 125.256 33.3362C122.254 33.3362 119.82 30.8686 119.82 27.8553C119.82 24.842 122.278 22.3981 125.256 22.3981C127.289 22.3981 129.085 23.537 130.031 25.1742C129.109 25.6487 129.038 25.6962 127.998 26.2182C127.454 25.2691 126.438 24.6522 125.256 24.6522C123.483 24.6522 122.065 26.0758 122.065 27.8553C122.065 29.6585 123.483 31.0584 125.256 31.0584C126.438 31.0584 127.62 30.4653 128.045 29.4687H127.809C127.336 29.4687 126.249 29.4925 125.658 29.4925C125.374 29.4925 125.256 29.4925 125.256 29.4687V27.5231C126.745 27.5231 128.825 27.5469 130.645 27.5469C130.645 27.8316 130.598 29.7772 130.031 30.489Z" fill="#0152FF"/>
<path d="M138.8 28.6146H133.907V33.1227H131.638V22.5168H133.907V26.3605H138.8V22.5405H141.069V33.1227H138.8V28.6146Z" fill="#0152FF"/>
<path d="M145.608 24.5336H142.251V22.588H151.233V24.5336H147.9V33.1464H145.584V24.5336H145.608Z" fill="#0152FF"/>
<path d="M104.739 44.0844C103.841 45.7928 101.997 46.9317 99.9646 46.9317C96.9627 46.9317 94.528 44.4641 94.528 41.4508C94.528 38.4375 96.9863 35.9936 99.9646 35.9936C101.997 35.9936 103.794 37.1325 104.739 38.7696C103.817 39.2442 103.746 39.2916 102.706 39.8136C102.163 38.8645 101.146 38.2476 99.9646 38.2476C98.1918 38.2476 96.7736 39.6713 96.7736 41.4508C96.7736 43.254 98.1918 44.6539 99.9646 44.6539C101.146 44.6539 102.328 44.0607 102.754 43.0642H102.517C102.045 43.0642 100.957 43.0879 100.366 43.0879C100.083 43.0879 99.9646 43.0879 99.9646 43.0642V41.1186C101.454 41.1186 103.534 41.1423 105.354 41.1423C105.354 41.4033 105.283 43.3726 104.739 44.0844Z" fill="#20C4F4"/>
<path d="M106.347 46.6707V36.1122H108.616V44.7014H114.029V46.647H106.347V46.6707Z" fill="#20C4F4"/>
<path d="M120.411 46.8842C117.409 46.8842 114.974 44.4404 114.974 41.4271C114.974 38.39 117.409 35.9462 120.411 35.9462C123.412 35.9462 125.871 38.39 125.871 41.4271C125.871 44.4404 123.389 46.8842 120.411 46.8842ZM117.196 41.4033C117.196 43.1591 118.661 44.6302 120.411 44.6302C122.16 44.6302 123.602 43.1591 123.602 41.4033C123.602 39.6476 122.16 38.1528 120.411 38.1528C118.638 38.1765 117.196 39.6476 117.196 41.4033Z" fill="#20C4F4"/>
<path d="M126.982 36.1597H131.945C133.955 36.1597 135.302 36.8004 135.302 38.7697C135.302 39.8374 134.805 40.5255 133.86 40.9763C135.16 41.3559 135.798 42.3287 135.798 43.6574C135.798 45.8166 133.978 46.7182 132.087 46.7182H126.982V36.1597ZM129.298 40.4543H131.638C132.465 40.4543 133.056 40.0747 133.056 39.1968C133.056 38.2002 132.3 37.9867 131.473 37.9867H129.298V40.4543ZM129.298 44.9387H131.78C132.678 44.9387 133.482 44.6539 133.482 43.5388C133.482 42.4473 132.82 42.0203 131.804 42.0203H129.274V44.9387H129.298Z" fill="#20C4F4"/>
<path d="M136.46 46.7419L141.235 36.1834H143.575L148.279 46.7419H146.033L144.993 44.3929H139.675L138.564 46.7419H136.46ZM142.44 38.1765L140.667 42.2575H144.166L142.44 38.1765Z" fill="#20C4F4"/>
<path d="M149.153 46.6707V36.1122H151.422V44.7014H156.835V46.647H149.153V46.6707Z" fill="#20C4F4"/>
<path d="M94.3626 60.3374L99.1373 49.7789H101.477L106.181 60.3374H103.936L102.896 57.9884H97.5772L96.4663 60.3374H94.3626ZM100.343 51.7483L98.57 55.8293H102.068L100.343 51.7483Z" fill="#0152FF"/>
<path d="M112.067 60.3611C109.112 60.3611 106.725 57.9647 106.725 54.9988C106.725 52.0567 109.112 49.6365 112.067 49.6365C114.099 49.6365 115.801 50.7517 116.7 52.3889C115.801 52.8634 115.73 52.9108 114.714 53.3854C114.194 52.4838 113.201 51.8669 112.067 51.8669C110.341 51.8669 108.947 53.2905 108.947 54.9988C108.947 56.7309 110.341 58.1307 112.067 58.1307C113.249 58.1307 114.289 57.4901 114.809 56.4936C115.801 57.0156 115.849 57.063 116.794 57.4901C115.896 59.2222 114.147 60.3611 112.067 60.3611Z" fill="#0152FF"/>
<path d="M123.011 60.3611C120.056 60.3611 117.669 57.9647 117.669 54.9988C117.669 52.0567 120.056 49.6365 123.011 49.6365C125.043 49.6365 126.745 50.7517 127.643 52.3889C126.745 52.8634 126.674 52.9108 125.658 53.3854C125.138 52.4838 124.145 51.8669 123.011 51.8669C121.285 51.8669 119.891 53.2905 119.891 54.9988C119.891 56.7309 121.285 58.1307 123.011 58.1307C124.192 58.1307 125.233 57.4901 125.753 56.4936C126.745 57.0156 126.793 57.063 127.738 57.4901C126.816 59.2222 125.091 60.3611 123.011 60.3611Z" fill="#0152FF"/>
<path d="M133.86 60.4797C130.858 60.4797 128.424 58.0358 128.424 55.0225C128.424 51.9855 130.858 49.5416 133.86 49.5416C136.862 49.5416 139.32 51.9855 139.32 55.0225C139.32 58.0358 136.838 60.4797 133.86 60.4797ZM130.622 54.9988C130.622 56.7546 132.087 58.2257 133.836 58.2257C135.586 58.2257 137.027 56.7546 137.027 54.9988C137.027 53.243 135.586 51.7482 133.836 51.7482C132.087 51.7482 130.622 53.243 130.622 54.9988Z" fill="#0152FF"/>
<path d="M149.602 56.3275C149.602 59.1985 147.924 60.5746 145.111 60.5746C142.251 60.5746 140.62 59.2222 140.62 56.3275V49.7552H142.937V56.3275C142.937 57.4901 143.22 58.629 145.111 58.629C146.766 58.629 147.286 57.9172 147.286 56.3275V49.7552H149.602V56.3275Z" fill="#0152FF"/>
<path d="M153.384 53.0295V60.3374H151.351V49.7078H153.999L158.703 56.3276V49.7078H160.664V60.3374H158.703L153.384 53.0295Z" fill="#0152FF"/>
<path d="M165.179 51.7245H161.823V49.7789H170.805V51.7245H167.472V60.3374H165.155V51.7245H165.179Z" fill="#0152FF"/>
<path d="M172.152 49.7552H174.468V60.3374H172.152V49.7552Z" fill="#0152FF"/>
<path d="M178.203 53.0295V60.3374H176.17V49.7078H178.818L183.521 56.3276V49.7078H185.483V60.3374H183.521L178.203 53.0295Z" fill="#0152FF"/>
<path d="M196.711 57.68C195.813 59.3883 193.969 60.5272 191.936 60.5272C188.934 60.5272 186.5 58.0596 186.5 55.0463C186.5 52.033 188.958 49.5891 191.936 49.5891C193.969 49.5891 195.765 50.728 196.711 52.3652C195.789 52.8397 195.718 52.8871 194.678 53.4091C194.134 52.4601 193.118 51.8432 191.936 51.8432C190.163 51.8432 188.745 53.2668 188.745 55.0463C188.745 56.8495 190.163 58.2494 191.936 58.2494C193.118 58.2494 194.3 57.6562 194.725 56.6597H194.489C194.016 56.6597 192.929 56.6834 192.338 56.6834C192.054 56.6834 191.936 56.6834 191.936 56.6597V54.7141C193.425 54.7141 195.505 54.7378 197.325 54.7378C197.302 54.9988 197.254 56.9682 196.711 57.68Z" fill="#0152FF"/>
<path d="M96.7263 65.1776C96.7263 65.7233 96.3008 66.0792 95.7099 66.0792H94.2444V62.971H95.5444C96.1826 62.971 96.5844 63.3269 96.5844 63.8726C96.5844 64.1099 96.4899 64.3234 96.2772 64.4658C96.5372 64.5844 96.7263 64.8692 96.7263 65.1776ZM95.4735 63.6591H95.048V64.1811H95.4735C95.6626 64.1811 95.7808 64.0862 95.7808 63.9201C95.7572 63.754 95.6626 63.6591 95.4735 63.6591ZM95.899 65.1064C95.899 64.9403 95.7808 64.8454 95.5917 64.8454H95.048V65.3674H95.5917C95.7808 65.3674 95.899 65.2725 95.899 65.1064Z" fill="#20C4F4"/>
<path d="M100.083 66.0318V66.0793H99.2082L99.0191 65.6759H97.8609L97.6954 66.0793H96.8208V66.0318L98.2863 62.9236H98.6409L100.083 66.0318ZM98.1445 64.9878H98.7118L98.4281 64.2286L98.1445 64.9878Z" fill="#20C4F4"/>
<path d="M104.29 62.971V66.0792H100.366V62.971H101.17V65.3437H101.926V62.971H102.73V65.3437H103.486V62.971H104.29Z" fill="#20C4F4"/>
<path d="M108.497 65.059C108.497 65.6047 108.119 66.0792 107.387 66.0792H105.992V62.971H108.214V63.6828H106.772V64.0862H107.363C108.143 64.0862 108.497 64.5133 108.497 65.059ZM107.694 65.059C107.694 64.8929 107.576 64.7505 107.363 64.7505H106.796V65.3674H107.363C107.576 65.3674 107.694 65.2013 107.694 65.059Z" fill="#20C4F4"/>
<path d="M111.641 62.9473V66.0792H110.838V65.0352V64.5132L109.207 66.0792H108.947V62.971H109.75V63.9438L109.727 64.4895L111.334 62.9473H111.641Z" fill="#20C4F4"/>
<path d="M114.619 65.1776C114.619 65.6996 114.194 66.1267 113.414 66.1267C112.705 66.1267 112.161 65.7233 112.161 64.9641H112.894C112.918 65.2251 113.083 65.4149 113.39 65.4149C113.721 65.4149 113.839 65.2488 113.839 65.0827C113.839 64.8929 113.698 64.7505 113.438 64.7505H113.107V64.1336H113.438C113.674 64.1336 113.816 64.015 113.816 63.8489C113.816 63.6828 113.674 63.5642 113.414 63.5642C113.154 63.5642 113.012 63.6828 112.989 63.8252H112.279C112.279 63.232 112.729 62.8998 113.414 62.8998C114.218 62.8998 114.549 63.3507 114.549 63.8252C114.549 64.0862 114.407 64.2997 114.194 64.4421C114.454 64.5844 114.619 64.8692 114.619 65.1776Z" fill="#20C4F4"/>
<path d="M117.787 62.971V66.0792H116.983V64.8454H115.943V66.0792H115.139V62.971H115.943V64.1099H116.983V62.971H117.787Z" fill="#20C4F4"/>
<path d="M120.411 65.3437V66.0792H118.425V62.971H120.363V63.7065H119.229V64.1574H120.269V64.8692H119.229V65.3437H120.411Z" fill="#20C4F4"/>
<path d="M120.765 64.5133C120.765 63.5642 121.403 62.8998 122.325 62.8998C123.152 62.8998 123.672 63.3744 123.838 64.0862H123.034C122.916 63.8252 122.68 63.6828 122.372 63.6828C121.923 63.6828 121.616 64.015 121.616 64.5133C121.616 65.0115 121.923 65.3437 122.372 65.3437C122.703 65.3437 122.963 65.1539 123.082 64.8929H123.885C123.743 65.6284 123.2 66.1267 122.349 66.1267C121.427 66.1267 120.765 65.4623 120.765 64.5133Z" fill="#20C4F4"/>
<path d="M127.809 65.1776C127.809 65.7233 127.383 66.0792 126.793 66.0792H125.327V62.971H126.627C127.265 62.971 127.667 63.3269 127.667 63.8726C127.667 64.1099 127.573 64.3234 127.36 64.4658C127.643 64.5844 127.809 64.8692 127.809 65.1776ZM126.556 63.6591H126.131V64.1811H126.556C126.745 64.1811 126.863 64.0862 126.863 63.9201C126.84 63.754 126.745 63.6591 126.556 63.6591ZM126.982 65.1064C126.982 64.9403 126.863 64.8454 126.674 64.8454H126.131V65.3674H126.674C126.863 65.3674 126.982 65.2725 126.982 65.1064Z" fill="#20C4F4"/>
<path d="M132.229 65.3437V66.7436H131.473V66.0792H129.369V62.971H130.173V65.3437H131.071V62.971H131.875V65.3437H132.229Z" fill="#20C4F4"/>
<path d="M135.444 62.9473V66.0792H134.64V65.0352V64.5132L133.009 66.0792H132.749V62.971H133.553V63.9438L133.529 64.4895L135.136 62.9473H135.444Z" fill="#20C4F4"/>
<path d="M138.138 65.7708V66.1267H137.382V65.7708C136.578 65.7471 135.916 65.3437 135.916 64.5133C135.916 63.6828 136.578 63.2795 137.382 63.232V62.8998H138.138V63.232C138.966 63.2557 139.604 63.6354 139.604 64.5133C139.58 65.3912 138.918 65.7471 138.138 65.7708ZM137.382 65.1064V63.9438C137.027 63.9675 136.72 64.0625 136.72 64.5133C136.72 64.9641 137.075 65.0827 137.382 65.1064ZM138.777 64.5133C138.777 64.0625 138.469 63.9438 138.115 63.9438V65.1064C138.446 65.0827 138.777 64.9641 138.777 64.5133Z" fill="#20C4F4"/>
<path d="M142.582 64.0862C142.582 64.7743 142.109 65.2251 141.424 65.2251H140.88V66.0792H140.077V62.971H141.447C142.109 62.971 142.582 63.4218 142.582 64.0862ZM141.755 64.0862C141.755 63.8252 141.589 63.6591 141.329 63.6591H140.857V64.5133H141.329C141.589 64.5133 141.755 64.3709 141.755 64.0862Z" fill="#20C4F4"/>
<path d="M145.726 66.0318V66.0793H144.851L144.662 65.6759H143.504L143.338 66.0793H142.464V66.0318L143.929 62.9236H144.284L145.726 66.0318ZM143.811 64.9878H144.378L144.095 64.2286L143.811 64.9878Z" fill="#20C4F4"/>
<path d="M148.775 66.0318V66.0792H147.853L147.239 65.059L146.624 66.0792H145.702V66.0318L146.719 64.4421L145.82 63.0185V62.9948H146.719L147.262 63.8726L147.782 62.9948H148.68V63.0185L147.782 64.4658L148.775 66.0318Z" fill="#20C4F4"/>
<path d="M150.004 64.4658H151.919V65.1064H150.004V64.4658Z" fill="#20C4F4"/>
<path d="M156.221 62.971V66.0792H155.417V64.8454H154.377V66.0792H153.573V62.971H154.377V64.1099H155.417V62.971H156.221Z" fill="#20C4F4"/>
<path d="M159.766 66.0318V66.0793H158.892L158.703 65.6759H157.544L157.379 66.0793H156.504V66.0318L157.97 62.9236H158.324L159.766 66.0318ZM157.852 64.9878H158.419L158.135 64.2286L157.852 64.9878Z" fill="#20C4F4"/>
<path d="M163.974 62.971V66.0792H160.05V62.971H160.853V65.3437H161.61V62.971H162.414V65.3437H163.17V62.971H163.974Z" fill="#20C4F4"/>
<path d="M167.519 66.0318V66.0793H166.645L166.455 65.6759H165.297L165.132 66.0793H164.257V66.0318L165.723 62.9236H166.077L167.519 66.0318ZM165.605 64.9878H166.172L165.888 64.2286L165.605 64.9878Z" fill="#20C4F4"/>
<path d="M168.772 62.971H171.348V66.0792H170.545V63.7065H169.599V66.0792H168.796V62.971H168.772Z" fill="#20C4F4"/>
<path d="M174.516 64.0862C174.516 64.7743 174.043 65.2251 173.357 65.2251H172.814V66.0792H172.01V62.971H173.381C174.067 62.971 174.516 63.4218 174.516 64.0862ZM173.688 64.0862C173.688 63.8252 173.523 63.6591 173.263 63.6591H172.79V64.5133H173.263C173.547 64.5133 173.688 64.3709 173.688 64.0862Z" fill="#20C4F4"/>
<path d="M174.776 64.5133C174.776 63.5642 175.438 62.8998 176.407 62.8998C177.352 62.8998 178.038 63.5642 178.038 64.5133C178.038 65.4623 177.376 66.1267 176.407 66.1267C175.461 66.1267 174.776 65.4623 174.776 64.5133ZM177.21 64.5133C177.21 64.015 176.903 63.6828 176.407 63.6828C175.934 63.6828 175.603 64.015 175.603 64.5133C175.603 65.0115 175.91 65.3437 176.407 65.3437C176.879 65.3437 177.21 65.0115 177.21 64.5133Z" fill="#20C4F4"/>
<path d="M180.543 65.7708V66.1267H179.787V65.7708C178.983 65.7471 178.321 65.3437 178.321 64.5133C178.321 63.6828 178.983 63.2795 179.787 63.232V62.8998H180.543V63.232C181.37 63.2557 182.009 63.6354 182.009 64.5133C182.009 65.3912 181.347 65.7471 180.543 65.7708ZM179.81 65.1064V63.9438C179.456 63.9675 179.149 64.0625 179.149 64.5133C179.149 64.9641 179.479 65.0827 179.81 65.1064ZM181.205 64.5133C181.205 64.0625 180.898 63.9438 180.543 63.9438V65.1064C180.874 65.0827 181.205 64.9641 181.205 64.5133Z" fill="#20C4F4"/>
<path d="M184.443 65.3437V66.0792H182.458V62.971H184.396V63.7065H183.261V64.1574H184.301V64.8692H183.261V65.3437H184.443Z" fill="#20C4F4"/>
<path d="M184.821 64.5133C184.821 63.5642 185.46 62.8998 186.381 62.8998C187.209 62.8998 187.729 63.3744 187.894 64.0862H187.091C186.972 63.8252 186.736 63.6828 186.429 63.6828C185.98 63.6828 185.672 64.015 185.672 64.5133C185.672 65.0115 185.98 65.3437 186.429 65.3437C186.76 65.3437 187.02 65.1539 187.138 64.8929H187.941C187.8 65.6284 187.256 66.1267 186.405 66.1267C185.46 66.1267 184.821 65.4623 184.821 64.5133Z" fill="#20C4F4"/>
<path d="M188.178 64.5133C188.178 63.5642 188.816 62.8998 189.738 62.8998C190.565 62.8998 191.085 63.3744 191.251 64.0862H190.447C190.329 63.8252 190.092 63.6828 189.785 63.6828C189.336 63.6828 189.029 64.015 189.029 64.5133C189.029 65.0115 189.336 65.3437 189.785 65.3437C190.116 65.3437 190.376 65.1539 190.494 64.8929H191.298C191.156 65.6284 190.612 66.1267 189.762 66.1267C188.84 66.1267 188.178 65.4623 188.178 64.5133Z" fill="#20C4F4"/>
<path d="M194.394 62.9473V66.0792H193.591V65.0352V64.5132L191.96 66.0792H191.723V62.971H192.527V63.9438L192.503 64.4895L194.111 62.9473H194.394Z" fill="#20C4F4"/>
<path d="M197.42 62.971V66.0792H196.616V65.1064H196.191L195.694 66.0792H194.844V66.0318L195.434 64.9641C195.08 64.798 194.914 64.4421 194.914 64.0624C194.914 63.5167 195.293 62.971 196.025 62.971H197.42ZM195.742 64.0387C195.742 64.2285 195.884 64.4421 196.12 64.4421H196.64V63.6828H196.12C195.86 63.6828 195.742 63.8489 195.742 64.0387Z" fill="#20C4F4"/>
<path d="M88.6897 27.2621H87.5078V54.7853H88.6897V27.2621Z" fill="#0152FF"/>
<path d="M40.7302 2.70483C19.6696 2.70483 2.6037 19.8356 2.6037 40.9762C2.6037 48.0231 4.5183 54.6429 7.82748 60.3136L33.5682 34.4751H18.866C17.2114 34.4751 15.7222 33.4786 15.084 31.9363C14.4458 30.3941 14.8004 28.6383 15.9822 27.4519L25.9807 17.4155C26.7371 16.6562 27.8008 16.2054 28.8881 16.2054H57.1343C61.2708 16.2054 64.6509 19.5984 64.6509 23.7505V52.2702C64.6509 53.3617 64.2017 54.4056 63.4454 55.1886L53.4233 65.2488C52.2414 66.4352 50.4923 66.7911 48.9559 66.1504C47.4195 65.5098 46.4267 64.015 46.4267 62.3541V47.4299L20.4969 73.4109C26.3589 77.1122 33.2845 79.2714 40.7302 79.2714C61.7908 79.2714 78.8803 62.1406 78.8803 40.9762C78.8803 19.8356 61.7908 2.70483 40.7302 2.70483Z" fill="#0152FF"/>
<path d="M48.9086 62.1643C48.9086 63.6117 50.6341 64.3235 51.6505 63.3032L61.649 53.2667C61.9563 52.9583 62.1217 52.5549 62.1217 52.1279V27.9265V23.5845C62.1217 20.8084 59.8762 18.5306 57.087 18.5306H52.7615H28.8644C28.439 18.5306 28.0371 18.6967 27.7299 19.0052L17.7314 29.0416C16.715 30.0619 17.4241 31.7939 18.866 31.7939H39.572L9.1748 62.3304C11.6803 66.0081 14.8004 69.2349 18.3932 71.8449L48.9086 41.2135V62.1643Z" fill="#20C4F4"/>
</svg>
