<svg width="17" height="17" viewBox="0 0 17 17" fill="none" xmlns="http://www.w3.org/2000/svg">
<path d="M7.66666 8.4128C8.11056 8.70875 8.88944 8.70878 9.33344 8.41277C9.3335 8.41274 9.3336 8.41267 9.33367 8.41264L16.8996 3.36868C16.6514 2.65095 15.9693 2.13391 15.1683 2.13391H1.8317C1.03066 2.13391 0.348568 2.65095 0.100372 3.36868L7.66643 8.41267C7.66653 8.41274 7.66659 8.41274 7.66666 8.4128Z" fill="#20C4F4"/>
<path d="M9.88618 9.24141C9.88608 9.24148 9.88601 9.24155 9.88594 9.24158C9.4974 9.5006 8.99862 9.63012 8.5 9.63012C8.00129 9.63012 7.5027 9.50063 7.11412 9.24154C7.11406 9.24151 7.11402 9.24148 7.11396 9.24145L0 4.49884V13.0345C0 14.0444 0.821684 14.8661 1.8317 14.8661H15.1684C16.1784 14.8661 17 14.0444 17 13.0345V4.49884L9.88618 9.24141Z" fill="#20C4F4"/>
</svg>
