<svg width="13" height="13" viewBox="0 0 13 13" fill="none" xmlns="http://www.w3.org/2000/svg">
<g clip-path="url(#clip0_0_288)">
<path fill-rule="evenodd" clip-rule="evenodd" d="M12.7624 11.4348C12.676 11.5209 12.5719 11.6309 12.4616 11.7473C12.1861 12.0396 11.842 12.403 11.6264 12.5504C10.4917 13.3257 8.9736 12.9547 7.89981 12.5073C6.48329 11.9171 4.94109 10.8292 3.55636 9.44433C2.17034 8.05933 1.08255 6.51664 0.492345 5.10094C0.0454703 4.02691 -0.326325 2.50855 0.449181 1.37359C0.596447 1.15777 0.960675 0.814211 1.25262 0.538241C1.36941 0.428198 1.47859 0.324223 1.56492 0.238174C1.71819 0.0856721 1.9256 6.10352e-05 2.14181 6.10352e-05C2.35802 6.10352e-05 2.56543 0.0856721 2.7187 0.238174L4.80652 2.32539C4.95894 2.47864 5.04449 2.686 5.04449 2.90215C5.04449 3.11829 4.95894 3.32565 4.80652 3.47891L4.23777 4.04651C4.04782 4.23507 3.92384 4.47991 3.88427 4.74461C3.84471 5.00931 3.89167 5.27971 4.01816 5.51556C4.80044 6.99204 6.00814 8.19953 7.48475 8.98156C7.72055 9.10802 7.9909 9.15492 8.25552 9.11528C8.52014 9.07565 8.76488 8.9516 8.95329 8.76161L9.52064 8.19397C9.67391 8.04147 9.88132 7.95586 10.0975 7.95586C10.3137 7.95586 10.5212 8.04147 10.6744 8.19397L12.7624 10.2815C12.9148 10.4347 13.0004 10.6421 13.0004 10.8582C13.0004 11.0743 12.9148 11.2816 12.7624 11.4348Z" fill="#20C4F4"/>
</g>
<defs>
<clipPath id="clip0_0_288">
<rect width="13" height="13" fill="white"/>
</clipPath>
</defs>
</svg>
