<svg width="17" height="17" viewBox="0 0 17 17" fill="none" xmlns="http://www.w3.org/2000/svg">
<g clip-path="url(#clip0_0_310)">
<path d="M12.3514 7.43722C10.7405 7.43722 9.42968 8.74803 9.42968 10.359C9.42968 11.9699 10.7405 13.2808 12.3514 13.2808C13.9624 13.2808 15.2732 11.9699 15.2732 10.359C15.2732 8.74803 13.9624 7.43722 12.3514 7.43722ZM13.5902 9.89018C12.7409 11.1644 12.9817 10.8031 12.5277 11.4839C12.3647 11.7284 12.0346 11.7933 11.791 11.631L10.9941 11.0997C10.7501 10.937 10.6844 10.6073 10.8471 10.363C11.0098 10.1189 11.3394 10.0532 11.5838 10.2159L11.9384 10.4523C12.7857 9.18162 12.7401 9.21678 12.8827 9.1355C13.3665 8.85561 13.9011 9.42316 13.5902 9.89018ZM9.96091 13.5444V16.4681C9.96091 16.8752 10.4018 17.1317 10.7558 16.9293L12.3514 16.0176L13.9471 16.9293C14.2997 17.1314 14.742 16.8763 14.742 16.4681V13.5444C13.3266 14.6092 11.3783 14.6108 9.96091 13.5444ZM13.4139 6.51886V1.15377C13.4139 0.517617 12.8963 0 12.2601 0H2.8806C2.24445 0 1.72684 0.517617 1.72684 1.15377V13.4551C1.72684 14.0912 2.24445 14.6088 2.8806 14.6088H8.89845C8.89845 12.3228 8.89489 12.4643 8.90675 12.3591C7.12839 9.31024 9.96014 5.55972 13.4139 6.51886ZM4.91422 2.65615H9.42968C9.72318 2.65615 9.96091 2.89388 9.96091 3.18738C9.96091 3.48089 9.72318 3.71861 9.42968 3.71861H4.91422C4.62071 3.71861 4.38299 3.48089 4.38299 3.18738C4.38299 2.89388 4.62071 2.65615 4.91422 2.65615ZM7.57037 7.96845H4.91422C4.62071 7.96845 4.38299 7.73073 4.38299 7.43722C4.38299 7.14372 4.62071 6.90599 4.91422 6.90599H7.57037C7.86387 6.90599 8.1016 7.14372 8.1016 7.43722C8.1016 7.73073 7.86387 7.96845 7.57037 7.96845ZM4.91422 5.84353C4.62071 5.84353 4.38299 5.60581 4.38299 5.3123C4.38299 5.0188 4.62071 4.78107 4.91422 4.78107H9.42968C9.72318 4.78107 9.96091 5.0188 9.96091 5.3123C9.96091 5.60581 9.72318 5.84353 9.42968 5.84353H4.91422Z" fill="#20C4F4"/>
</g>
<defs>
<clipPath id="clip0_0_310">
<rect width="17" height="17" fill="white"/>
</clipPath>
</defs>
</svg>
